<svg width="157" height="53" viewBox="0 0 157 53" fill="none" xmlns="http://www.w3.org/2000/svg">
<g clip-path="url(#clip0_1_394)">
<path d="M10.4482 28.8636V44H3.18679V9.09091H10.2436V22.4375H10.5504C11.1413 20.892 12.0959 19.6818 13.4141 18.8068C14.7322 17.9205 16.3857 17.4773 18.3743 17.4773C20.1925 17.4773 21.7777 17.875 23.13 18.6705C24.4936 19.4545 25.5504 20.5852 26.3004 22.0625C27.0618 23.5284 27.4368 25.2841 27.4254 27.3295V44H20.1641V28.625C20.1754 27.0114 19.7663 25.7557 18.9368 24.858C18.1186 23.9602 16.9709 23.5114 15.4936 23.5114C14.505 23.5114 13.63 23.7216 12.8686 24.142C12.1186 24.5625 11.5277 25.1761 11.0959 25.983C10.6754 26.7784 10.4595 27.7386 10.4482 28.8636ZM33.1399 44V17.8182H40.4013V44H33.1399ZM36.7876 14.4432C35.7081 14.4432 34.782 14.0852 34.0092 13.3693C33.2479 12.642 32.8672 11.7727 32.8672 10.7614C32.8672 9.76136 33.2479 8.90341 34.0092 8.1875C34.782 7.46023 35.7081 7.09659 36.7876 7.09659C37.8672 7.09659 38.7876 7.46023 39.549 8.1875C40.3217 8.90341 40.7081 9.76136 40.7081 10.7614C40.7081 11.7727 40.3217 12.642 39.549 13.3693C38.7876 14.0852 37.8672 14.4432 36.7876 14.4432ZM68.0021 25.2841L61.3544 25.6932C61.2408 25.125 60.9964 24.6136 60.6214 24.1591C60.2464 23.6932 59.7521 23.3239 59.1385 23.0511C58.5362 22.767 57.8146 22.625 56.9737 22.625C55.8487 22.625 54.8999 22.8636 54.1271 23.3409C53.3544 23.8068 52.968 24.4318 52.968 25.2159C52.968 25.8409 53.218 26.3693 53.718 26.8011C54.218 27.233 55.076 27.5795 56.2919 27.8409L61.0305 28.7955C63.576 29.3182 65.4737 30.1591 66.7237 31.3182C67.9737 32.4773 68.5987 34 68.5987 35.8864C68.5987 37.6023 68.093 39.108 67.0817 40.4034C66.0817 41.6989 64.7067 42.7102 62.9567 43.4375C61.218 44.1534 59.2124 44.5114 56.9396 44.5114C53.4737 44.5114 50.7124 43.7898 48.6555 42.3466C46.6101 40.892 45.4112 38.9148 45.0589 36.4148L52.201 36.0398C52.4169 37.0966 52.9396 37.9034 53.7692 38.4602C54.5987 39.0057 55.6612 39.2784 56.9567 39.2784C58.2294 39.2784 59.2521 39.0341 60.0249 38.5455C60.8089 38.0455 61.2067 37.4034 61.218 36.6193C61.2067 35.9602 60.9283 35.4205 60.3828 35C59.8374 34.5682 58.9964 34.2386 57.8601 34.0114L53.326 33.108C50.7692 32.5966 48.8658 31.7102 47.6158 30.4489C46.3771 29.1875 45.7578 27.5795 45.7578 25.625C45.7578 23.9432 46.2124 22.4943 47.1214 21.2784C48.0419 20.0625 49.3317 19.125 50.9908 18.4659C52.6612 17.8068 54.6158 17.4773 56.8544 17.4773C60.1612 17.4773 62.7635 18.1761 64.6612 19.5739C66.5703 20.9716 67.6839 22.875 68.0021 25.2841ZM80.6371 44.4943C78.9666 44.4943 77.478 44.2045 76.1712 43.625C74.8643 43.0341 73.8303 42.1648 73.0689 41.017C72.3189 39.858 71.9439 38.4148 71.9439 36.6875C71.9439 35.233 72.2109 34.0114 72.745 33.0227C73.2791 32.0341 74.0064 31.2386 74.9268 30.6364C75.8473 30.0341 76.8928 29.5795 78.0632 29.2727C79.245 28.9659 80.4837 28.75 81.7791 28.625C83.3018 28.4659 84.5291 28.3182 85.4609 28.1818C86.3928 28.0341 87.0689 27.8182 87.4893 27.5341C87.9098 27.25 88.12 26.8295 88.12 26.2727V26.1705C88.12 25.0909 87.7791 24.2557 87.0973 23.6648C86.4268 23.0739 85.4723 22.7784 84.2337 22.7784C82.9268 22.7784 81.8871 23.0682 81.1143 23.6477C80.3416 24.2159 79.8303 24.9318 79.5803 25.7955L72.8643 25.25C73.2053 23.6591 73.8757 22.2841 74.8757 21.125C75.8757 19.9545 77.1655 19.0568 78.745 18.4318C80.3359 17.7955 82.1768 17.4773 84.2678 17.4773C85.7223 17.4773 87.1143 17.6477 88.4439 17.9886C89.7848 18.3295 90.9723 18.858 92.0064 19.5739C93.0518 20.2898 93.8757 21.2102 94.478 22.3352C95.0803 23.4489 95.3814 24.7841 95.3814 26.3409V44H88.495V40.3693H88.2905C87.87 41.1875 87.3075 41.9091 86.603 42.5341C85.8984 43.1477 85.0518 43.6307 84.0632 43.983C83.0746 44.3239 81.9325 44.4943 80.6371 44.4943ZM82.7166 39.483C83.7848 39.483 84.728 39.2727 85.5462 38.8523C86.3643 38.4205 87.0064 37.8409 87.4723 37.1136C87.9382 36.3864 88.1712 35.5625 88.1712 34.642V31.8636C87.9439 32.0114 87.6314 32.1477 87.2337 32.2727C86.8473 32.3864 86.4098 32.4943 85.9212 32.5966C85.4325 32.6875 84.9439 32.7727 84.4553 32.8523C83.9666 32.9205 83.5234 32.983 83.1257 33.0398C82.2734 33.1648 81.5291 33.3636 80.8928 33.6364C80.2564 33.9091 79.7621 34.2784 79.4098 34.7443C79.0575 35.1989 78.8814 35.767 78.8814 36.4489C78.8814 37.4375 79.2393 38.1932 79.9553 38.7159C80.6825 39.2273 81.603 39.483 82.7166 39.483ZM101.151 44V9.09091H108.413V22.2159H108.634C108.952 21.5114 109.413 20.7955 110.015 20.0682C110.629 19.3295 111.424 18.7159 112.401 18.2273C113.39 17.7273 114.617 17.4773 116.083 17.4773C117.992 17.4773 119.754 17.9773 121.367 18.9773C122.981 19.9659 124.271 21.4602 125.237 23.4602C126.202 25.4489 126.685 27.9432 126.685 30.9432C126.685 33.8636 126.214 36.3295 125.271 38.3409C124.339 40.3409 123.066 41.858 121.452 42.892C119.85 43.9148 118.055 44.4261 116.066 44.4261C114.657 44.4261 113.458 44.1932 112.469 43.7273C111.492 43.2614 110.691 42.6761 110.066 41.9716C109.441 41.2557 108.964 40.5341 108.634 39.8068H108.31V44H101.151ZM108.259 30.9091C108.259 32.4659 108.475 33.8239 108.907 34.983C109.339 36.142 109.964 37.0455 110.782 37.6932C111.6 38.3295 112.594 38.6477 113.765 38.6477C114.947 38.6477 115.947 38.3239 116.765 37.6761C117.583 37.017 118.202 36.108 118.623 34.9489C119.055 33.7784 119.271 32.4318 119.271 30.9091C119.271 29.3977 119.06 28.0682 118.64 26.9205C118.219 25.7727 117.6 24.875 116.782 24.2273C115.964 23.5795 114.958 23.2557 113.765 23.2557C112.583 23.2557 111.583 23.5682 110.765 24.1932C109.958 24.8182 109.339 25.7045 108.907 26.8523C108.475 28 108.259 29.3523 108.259 30.9091ZM131.531 44V17.8182H138.792V44H131.531ZM135.178 14.4432C134.099 14.4432 133.173 14.0852 132.4 13.3693C131.638 12.642 131.258 11.7727 131.258 10.7614C131.258 9.76136 131.638 8.90341 132.4 8.1875C133.173 7.46023 134.099 7.09659 135.178 7.09659C136.258 7.09659 137.178 7.46023 137.94 8.1875C138.712 8.90341 139.099 9.76136 139.099 10.7614C139.099 11.7727 138.712 12.642 137.94 13.3693C137.178 14.0852 136.258 14.4432 135.178 14.4432Z" fill="#111111"/>
<path d="M149.494 44.4432C148.369 44.4432 147.403 44.0455 146.596 43.25C145.8 42.4432 145.403 41.4773 145.403 40.3523C145.403 39.2386 145.8 38.2841 146.596 37.4886C147.403 36.6932 148.369 36.2955 149.494 36.2955C150.585 36.2955 151.539 36.6932 152.357 37.4886C153.175 38.2841 153.585 39.2386 153.585 40.3523C153.585 41.1023 153.391 41.7898 153.005 42.4148C152.63 43.0284 152.136 43.5227 151.522 43.8977C150.908 44.2614 150.232 44.4432 149.494 44.4432Z" fill="#FF8D41"/>
</g>
<defs>
<clipPath id="clip0_1_394">
<rect width="157" height="53" fill="white"/>
</clipPath>
</defs>
</svg>
