<svg width="183" height="53" viewBox="0 0 183 53" fill="none" xmlns="http://www.w3.org/2000/svg">
<g clip-path="url(#clip0_1_394)">
<path d="M16.4446 31.8636H22.7173L25.8707 35.9205L28.973 39.5341L34.8196 46.8636H27.9332L23.9105 41.9205L21.848 38.9886L16.4446 31.8636ZM35.348 26.5455C35.348 30.3523 34.6264 33.5909 33.1832 36.2614C31.7514 38.9318 29.7969 40.9716 27.3196 42.3807C24.8537 43.7784 22.081 44.4773 19.0014 44.4773C15.8991 44.4773 13.1151 43.7727 10.6491 42.3636C8.18324 40.9545 6.23438 38.9148 4.80256 36.2443C3.37074 33.5739 2.65483 30.3409 2.65483 26.5455C2.65483 22.7386 3.37074 19.5 4.80256 16.8295C6.23438 14.1591 8.18324 12.125 10.6491 10.7273C13.1151 9.31818 15.8991 8.61364 19.0014 8.61364C22.081 8.61364 24.8537 9.31818 27.3196 10.7273C29.7969 12.125 31.7514 14.1591 33.1832 16.8295C34.6264 19.5 35.348 22.7386 35.348 26.5455ZM27.8651 26.5455C27.8651 24.0795 27.4957 22 26.7571 20.3068C26.0298 18.6136 25.0014 17.3295 23.6719 16.4545C22.3423 15.5795 20.7855 15.142 19.0014 15.142C17.2173 15.142 15.6605 15.5795 14.331 16.4545C13.0014 17.3295 11.9673 18.6136 11.2287 20.3068C10.5014 22 10.1378 24.0795 10.1378 26.5455C10.1378 29.0114 10.5014 31.0909 11.2287 32.7841C11.9673 34.4773 13.0014 35.7614 14.331 36.6364C15.6605 37.5114 17.2173 37.9489 19.0014 37.9489C20.7855 37.9489 22.3423 37.5114 23.6719 36.6364C25.0014 35.7614 26.0298 34.4773 26.7571 32.7841C27.4957 31.0909 27.8651 29.0114 27.8651 26.5455ZM48.1449 44.4943C46.4744 44.4943 44.9858 44.2045 43.679 43.625C42.3722 43.0341 41.3381 42.1648 40.5767 41.017C39.8267 39.858 39.4517 38.4148 39.4517 36.6875C39.4517 35.233 39.7188 34.0114 40.2528 33.0227C40.7869 32.0341 41.5142 31.2386 42.4347 30.6364C43.3551 30.0341 44.4006 29.5795 45.571 29.2727C46.7528 28.9659 47.9915 28.75 49.2869 28.625C50.8097 28.4659 52.0369 28.3182 52.9688 28.1818C53.9006 28.0341 54.5767 27.8182 54.9972 27.5341C55.4176 27.25 55.6278 26.8295 55.6278 26.2727V26.1705C55.6278 25.0909 55.2869 24.2557 54.6051 23.6648C53.9347 23.0739 52.9801 22.7784 51.7415 22.7784C50.4347 22.7784 49.3949 23.0682 48.6222 23.6477C47.8494 24.2159 47.3381 24.9318 47.0881 25.7955L40.3722 25.25C40.7131 23.6591 41.3835 22.2841 42.3835 21.125C43.3835 19.9545 44.6733 19.0568 46.2528 18.4318C47.8438 17.7955 49.6847 17.4773 51.7756 17.4773C53.2301 17.4773 54.6222 17.6477 55.9517 17.9886C57.2926 18.3295 58.4801 18.858 59.5142 19.5739C60.5597 20.2898 61.3835 21.2102 61.9858 22.3352C62.5881 23.4489 62.8892 24.7841 62.8892 26.3409V44H56.0028V40.3693H55.7983C55.3778 41.1875 54.8153 41.9091 54.1108 42.5341C53.4062 43.1477 52.5597 43.6307 51.571 43.983C50.5824 44.3239 49.4403 44.4943 48.1449 44.4943ZM50.2244 39.483C51.2926 39.483 52.2358 39.2727 53.054 38.8523C53.8722 38.4205 54.5142 37.8409 54.9801 37.1136C55.446 36.3864 55.679 35.5625 55.679 34.642V31.8636C55.4517 32.0114 55.1392 32.1477 54.7415 32.2727C54.3551 32.3864 53.9176 32.4943 53.429 32.5966C52.9403 32.6875 52.4517 32.7727 51.9631 32.8523C51.4744 32.9205 51.0312 32.983 50.6335 33.0398C49.7813 33.1648 49.0369 33.3636 48.4006 33.6364C47.7642 33.9091 47.2699 34.2784 46.9176 34.7443C46.5653 35.1989 46.3892 35.767 46.3892 36.4489C46.3892 37.4375 46.7472 38.1932 47.4631 38.7159C48.1903 39.2273 49.1108 39.483 50.2244 39.483ZM78.1705 44.4261C76.1818 44.4261 74.3807 43.9148 72.767 42.892C71.1648 41.858 69.892 40.3409 68.9489 38.3409C68.017 36.3295 67.5511 33.8636 67.5511 30.9432C67.5511 27.9432 68.0341 25.4489 69 23.4602C69.9659 21.4602 71.25 19.9659 72.8523 18.9773C74.4659 17.9773 76.233 17.4773 78.1534 17.4773C79.6193 17.4773 80.8409 17.7273 81.8182 18.2273C82.8068 18.7159 83.6023 19.3295 84.2045 20.0682C84.8182 20.7955 85.2841 21.5114 85.6023 22.2159H85.8239V9.09091H93.0682V44H85.9091V39.8068H85.6023C85.2614 40.5341 84.7784 41.2557 84.1534 41.9716C83.5398 42.6761 82.7386 43.2614 81.75 43.7273C80.7727 44.1932 79.5795 44.4261 78.1705 44.4261ZM80.4716 38.6477C81.642 38.6477 82.6307 38.3295 83.4375 37.6932C84.2557 37.0455 84.8807 36.142 85.3125 34.983C85.7557 33.8239 85.9773 32.4659 85.9773 30.9091C85.9773 29.3523 85.7614 28 85.3295 26.8523C84.8977 25.7045 84.2727 24.8182 83.4545 24.1932C82.6364 23.5682 81.642 23.2557 80.4716 23.2557C79.2784 23.2557 78.2727 23.5795 77.4545 24.2273C76.6364 24.875 76.017 25.7727 75.5966 26.9205C75.1761 28.0682 74.9659 29.3977 74.9659 30.9091C74.9659 32.4318 75.1761 33.7784 75.5966 34.9489C76.0284 36.108 76.6477 37.017 77.4545 37.6761C78.2727 38.3239 79.2784 38.6477 80.4716 38.6477ZM106.504 44.4943C104.834 44.4943 103.345 44.2045 102.038 43.625C100.732 43.0341 99.6974 42.1648 98.9361 41.017C98.1861 39.858 97.8111 38.4148 97.8111 36.6875C97.8111 35.233 98.0781 34.0114 98.6122 33.0227C99.1463 32.0341 99.8736 31.2386 100.794 30.6364C101.714 30.0341 102.76 29.5795 103.93 29.2727C105.112 28.9659 106.351 28.75 107.646 28.625C109.169 28.4659 110.396 28.3182 111.328 28.1818C112.26 28.0341 112.936 27.8182 113.357 27.5341C113.777 27.25 113.987 26.8295 113.987 26.2727V26.1705C113.987 25.0909 113.646 24.2557 112.964 23.6648C112.294 23.0739 111.339 22.7784 110.101 22.7784C108.794 22.7784 107.754 23.0682 106.982 23.6477C106.209 24.2159 105.697 24.9318 105.447 25.7955L98.7315 25.25C99.0724 23.6591 99.7429 22.2841 100.743 21.125C101.743 19.9545 103.033 19.0568 104.612 18.4318C106.203 17.7955 108.044 17.4773 110.135 17.4773C111.589 17.4773 112.982 17.6477 114.311 17.9886C115.652 18.3295 116.839 18.858 117.874 19.5739C118.919 20.2898 119.743 21.2102 120.345 22.3352C120.947 23.4489 121.249 24.7841 121.249 26.3409V44H114.362V40.3693H114.158C113.737 41.1875 113.175 41.9091 112.47 42.5341C111.766 43.1477 110.919 43.6307 109.93 43.983C108.942 44.3239 107.8 44.4943 106.504 44.4943ZM108.584 39.483C109.652 39.483 110.595 39.2727 111.413 38.8523C112.232 38.4205 112.874 37.8409 113.339 37.1136C113.805 36.3864 114.038 35.5625 114.038 34.642V31.8636C113.811 32.0114 113.499 32.1477 113.101 32.2727C112.714 32.3864 112.277 32.4943 111.788 32.5966C111.3 32.6875 110.811 32.7727 110.322 32.8523C109.834 32.9205 109.391 32.983 108.993 33.0398C108.141 33.1648 107.396 33.3636 106.76 33.6364C106.124 33.9091 105.629 34.2784 105.277 34.7443C104.925 35.1989 104.749 35.767 104.749 36.4489C104.749 37.4375 105.107 38.1932 105.822 38.7159C106.55 39.2273 107.47 39.483 108.584 39.483ZM126.882 44V17.8182H133.803V22.4375H134.109C134.655 20.9034 135.564 19.6932 136.837 18.8068C138.109 17.9205 139.632 17.4773 141.405 17.4773C143.2 17.4773 144.729 17.9261 145.99 18.8239C147.251 19.7102 148.092 20.9148 148.513 22.4375H148.786C149.32 20.9375 150.286 19.7386 151.683 18.8409C153.092 17.9318 154.757 17.4773 156.678 17.4773C159.121 17.4773 161.104 18.2557 162.626 19.8125C164.161 21.358 164.928 23.5511 164.928 26.392V44H157.683V27.8239C157.683 26.3693 157.297 25.2784 156.524 24.5511C155.751 23.8239 154.786 23.4602 153.626 23.4602C152.308 23.4602 151.28 23.8807 150.541 24.7216C149.803 25.5511 149.433 26.6477 149.433 28.0114V44H142.393V27.6705C142.393 26.3864 142.024 25.3636 141.286 24.6023C140.558 23.8409 139.598 23.4602 138.405 23.4602C137.598 23.4602 136.871 23.6648 136.223 24.0739C135.587 24.4716 135.081 25.0341 134.706 25.7614C134.331 26.4773 134.143 27.3182 134.143 28.2841V44H126.882Z" fill="#111111"/>
<path d="M175.494 44.4432C174.369 44.4432 173.403 44.0455 172.596 43.25C171.8 42.4432 171.403 41.4773 171.403 40.3523C171.403 39.2386 171.8 38.2841 172.596 37.4886C173.403 36.6932 174.369 36.2955 175.494 36.2955C176.585 36.2955 177.539 36.6932 178.357 37.4886C179.175 38.2841 179.585 39.2386 179.585 40.3523C179.585 41.1023 179.391 41.7898 179.005 42.4148C178.63 43.0284 178.136 43.5227 177.522 43.8977C176.908 44.2614 176.232 44.4432 175.494 44.4432Z" fill="#FF8D41"/>
</g>
<defs>
<clipPath id="clip0_1_394">
<rect width="183" height="53" fill="white"/>
</clipPath>
</defs>
</svg>
