<svg width="44" height="44" viewBox="0 0 44 44" fill="none" xmlns="http://www.w3.org/2000/svg">
<path d="M0 22C0 9.84974 9.84974 0 22 0C34.1503 0 44 9.84974 44 22C44 34.1503 34.1503 44 22 44C9.84974 44 0 34.1503 0 22Z" fill="#FAFAFA"/>
<g opacity="0.9" clip-path="url(#clip0_1_404)">
<path d="M30.16 27.5866C29.8576 28.2853 29.4996 28.9285 29.0848 29.5198C28.5194 30.326 28.0564 30.884 27.6996 31.1939C27.1466 31.7025 26.554 31.963 25.9194 31.9778C25.4639 31.9778 24.9145 31.8482 24.275 31.5852C23.6335 31.3235 23.0439 31.1939 22.5047 31.1939C21.9393 31.1939 21.3329 31.3235 20.6843 31.5852C20.0347 31.8482 19.5114 31.9852 19.1113 31.9988C18.5028 32.0247 17.8962 31.7568 17.2908 31.1939C16.9044 30.8568 16.4211 30.2791 15.8421 29.4606C15.2209 28.5865 14.7102 27.573 14.3101 26.4175C13.8816 25.1694 13.6667 23.9607 13.6667 22.7907C13.6667 21.4503 13.9564 20.2943 14.5365 19.3256C14.9924 18.5475 15.5989 17.9336 16.358 17.483C17.1171 17.0324 17.9374 16.8028 18.8207 16.7881C19.304 16.7881 19.9378 16.9376 20.7254 17.2314C21.5108 17.5263 22.0151 17.6758 22.2362 17.6758C22.4015 17.6758 22.9618 17.5009 23.9115 17.1524C24.8096 16.8292 25.5676 16.6954 26.1886 16.7481C27.8712 16.8839 29.1354 17.5472 29.9761 18.7423C28.4712 19.6541 27.7268 20.9312 27.7416 22.5696C27.7552 23.8457 28.2181 24.9076 29.128 25.7508C29.5403 26.1422 30.0008 26.4446 30.5131 26.6594C30.402 26.9816 30.2847 27.2903 30.16 27.5866ZM26.3009 12.4006C26.3009 13.4008 25.9355 14.3347 25.2071 15.1992C24.3281 16.2268 23.265 16.8206 22.112 16.7269C22.0973 16.6069 22.0888 16.4806 22.0888 16.3479C22.0888 15.3877 22.5068 14.36 23.2492 13.5198C23.6198 13.0944 24.0911 12.7407 24.6627 12.4585C25.233 12.1805 25.7725 12.0268 26.2799 12.0005C26.2947 12.1342 26.3009 12.2679 26.3009 12.4006V12.4006Z" fill="#111111"/>
</g>
<defs>
<clipPath id="clip0_1_404">
<rect width="20" height="20" fill="white" transform="translate(12 12)"/>
</clipPath>
</defs>
</svg>
