<svg width="25" height="25" viewBox="0 0 25 25" fill="none" xmlns="http://www.w3.org/2000/svg">
<g id="shopping-cart-01">
<path id="Vector" d="M8.5 16.5H15.7632C20.2508 16.5 20.9333 13.6808 21.761 9.56908C21.9998 8.38311 22.1192 7.79013 21.8321 7.39507C21.545 7 20.9947 7 19.8941 7H6.5" stroke="#FF8D41" stroke-width="1.5" stroke-linecap="round"/>
<path id="Vector_2" d="M8.5 16.5L5.87873 4.01493C5.65615 3.12459 4.85618 2.5 3.93845 2.5H3" stroke="#FF8D41" stroke-width="1.5" stroke-linecap="round"/>
<path id="Vector_3" d="M9.38 16.5H8.96857C7.60522 16.5 6.5 17.6513 6.5 19.0714C6.5 19.3081 6.6842 19.5 6.91143 19.5H18" stroke="#FF8D41" stroke-width="1.5" stroke-linecap="round" stroke-linejoin="round"/>
<path id="Vector_4" d="M11 22.5C11.8284 22.5 12.5 21.8284 12.5 21C12.5 20.1716 11.8284 19.5 11 19.5C10.1716 19.5 9.5 20.1716 9.5 21C9.5 21.8284 10.1716 22.5 11 22.5Z" stroke="#FF8D41" stroke-width="1.5"/>
<path id="Vector_5" d="M18 22.5C18.8284 22.5 19.5 21.8284 19.5 21C19.5 20.1716 18.8284 19.5 18 19.5C17.1716 19.5 16.5 20.1716 16.5 21C16.5 21.8284 17.1716 22.5 18 22.5Z" stroke="#FF8D41" stroke-width="1.5"/>
</g>
</svg>
