<svg width="44" height="44" viewBox="0 0 44 44" fill="none" xmlns="http://www.w3.org/2000/svg">
<path d="M0 22C0 9.84974 9.84974 0 22 0C34.1503 0 44 9.84974 44 22C44 34.1503 34.1503 44 22 44C9.84974 44 0 34.1503 0 22Z" fill="#FAFAFA"/>
<g opacity="0.9" clip-path="url(#clip0_1_402)">
<path d="M32 22C32 16.4772 27.5228 12 22 12C16.4772 12 12 16.4772 12 22C12 26.6896 15.2288 30.6248 19.5844 31.7056V25.056H17.5224V22H19.5844V20.6832C19.5844 17.2796 21.1248 15.702 24.4664 15.702C25.1 15.702 26.1932 15.8264 26.6404 15.9504V18.7204C26.4044 18.6956 25.9944 18.6832 25.4852 18.6832C23.8456 18.6832 23.212 19.3044 23.212 20.9192V22H26.4784L25.9172 25.056H23.212V31.9268C28.1636 31.3288 32.0004 27.1128 32.0004 22H32Z" fill="#0866FF"/>
<path d="M25.9168 25.0561L26.478 22.0001H23.2116V20.9193C23.2116 19.3045 23.8452 18.6833 25.4848 18.6833C25.994 18.6833 26.404 18.6957 26.64 18.7205V15.9505C26.1928 15.8261 25.0996 15.7021 24.466 15.7021C21.1244 15.7021 19.584 17.2797 19.584 20.6833V22.0001H17.522V25.0561H19.584V31.7057C20.3576 31.8977 21.1668 32.0001 21.9996 32.0001C22.4096 32.0001 22.814 31.9749 23.2112 31.9269V25.0561H25.9164H25.9168Z" fill="white"/>
</g>
<defs>
<clipPath id="clip0_1_402">
<rect width="20" height="20" fill="white" transform="translate(12 12)"/>
</clipPath>
</defs>
</svg>
