<svg width="44" height="44" viewBox="0 0 44 44" fill="none" xmlns="http://www.w3.org/2000/svg">
<path d="M0 22C0 9.84974 9.84974 0 22 0C34.1503 0 44 9.84974 44 22C44 34.1503 34.1503 44 22 44C9.84974 44 0 34.1503 0 22Z" fill="#FAFAFA"/>
<g opacity="0.9" clip-path="url(#clip0_1_400)">
<path d="M21.9998 20.1816V24.0544H27.3816C27.1452 25.2998 26.4361 26.3544 25.3724 27.0635L28.6179 29.5817C30.5088 27.8363 31.5997 25.2726 31.5997 22.2272C31.5997 21.5181 31.5361 20.8362 31.4179 20.1817L21.9998 20.1816Z" fill="#007BFF"/>
<path d="M16.3955 23.9033L15.6635 24.4636L13.0726 26.4818C14.718 29.7454 18.0905 32 21.9996 32C24.6995 32 26.9631 31.1091 28.6177 29.5818L25.3722 27.0636C24.4813 27.6636 23.345 28.0273 21.9996 28.0273C19.3996 28.0273 17.1905 26.2728 16.3996 23.9091L16.3955 23.9033Z" fill="#34A853"/>
<path d="M13.0726 17.5186C12.3908 18.864 11.9999 20.3822 11.9999 22.0003C11.9999 23.6185 12.3908 25.1367 13.0726 26.4821C13.0726 26.4911 16.3999 23.9003 16.3999 23.9003C16.1999 23.3003 16.0817 22.6639 16.0817 22.0002C16.0817 21.3365 16.1999 20.7002 16.3999 20.1002L13.0726 17.5186Z" fill="#FBBC05"/>
<path d="M21.9998 15.9818C23.4725 15.9818 24.7816 16.4909 25.827 17.4727L28.6906 14.6091C26.9543 12.991 24.6998 12 21.9998 12C18.0907 12 14.718 14.2455 13.0726 17.5182L16.3998 20.1C17.1907 17.7363 19.3998 15.9818 21.9998 15.9818Z" fill="#EA4335"/>
</g>
<defs>
<clipPath id="clip0_1_400">
<rect width="20" height="20" fill="white" transform="translate(12 12)"/>
</clipPath>
</defs>
</svg>
