<svg width="20" height="20" viewBox="0 0 20 20" fill="none" xmlns="http://www.w3.org/2000/svg">
<path d="M5.83337 7.0835L8.28506 8.533C9.71437 9.37808 10.2857 9.37808 11.715 8.533L14.1667 7.0835" stroke="#9E9E9E" stroke-width="1.25" stroke-linecap="round" stroke-linejoin="round"/>
<path d="M1.67976 11.2295C1.73425 13.7841 1.76148 15.0614 2.70409 16.0076C3.6467 16.9539 4.95857 16.9868 7.58232 17.0527C9.19938 17.0934 10.8005 17.0934 12.4176 17.0527C15.0414 16.9868 16.3532 16.9539 17.2958 16.0076C18.2385 15.0614 18.2657 13.7841 18.3201 11.2295C18.3377 10.4081 18.3377 9.59153 18.3201 8.7702C18.2657 6.21555 18.2385 4.93825 17.2958 3.99205C16.3532 3.04586 15.0414 3.0129 12.4176 2.94698C10.8005 2.90635 9.19938 2.90635 7.58231 2.94697C4.95857 3.01289 3.6467 3.04585 2.70409 3.99205C1.76148 4.93824 1.73424 6.21555 1.67976 8.77011C1.66225 9.59153 1.66225 10.4081 1.67976 11.2295Z" stroke="#9E9E9E" stroke-width="1.25" stroke-linejoin="round"/>
</svg>
