<svg width="20" height="20" viewBox="0 0 20 20" fill="none" xmlns="http://www.w3.org/2000/svg">
<path d="M4.16663 7.49984C4.16663 4.74998 4.16663 3.37505 5.0209 2.52078C5.87517 1.6665 7.2501 1.6665 9.99996 1.6665C12.7498 1.6665 14.1247 1.6665 14.979 2.52078C15.8333 3.37505 15.8333 4.74998 15.8333 7.49984V12.4998C15.8333 15.2497 15.8333 16.6246 14.979 17.4789C14.1247 18.3332 12.7498 18.3332 9.99996 18.3332C7.2501 18.3332 5.87517 18.3332 5.0209 17.4789C4.16663 16.6246 4.16663 15.2497 4.16663 12.4998V7.49984Z" stroke="#9E9E9E" stroke-width="1.25" stroke-linecap="round"/>
<path d="M9.16663 15.8335H10.8333" stroke="#9E9E9E" stroke-width="1.25" stroke-linecap="round" stroke-linejoin="round"/>
<path d="M7.5 1.6665L7.57417 2.11152C7.7349 3.07591 7.81527 3.55811 8.14599 3.85154C8.491 4.15762 8.98008 4.1665 10 4.1665C11.0199 4.1665 11.509 4.15762 11.854 3.85154C12.1847 3.55811 12.2651 3.07591 12.4258 2.11152L12.5 1.6665" stroke="#9E9E9E" stroke-width="1.25" stroke-linejoin="round"/>
</svg>
