<svg width="20" height="20" viewBox="0 0 20 20" fill="none" xmlns="http://www.w3.org/2000/svg">
<path d="M17.9533 9.204C18.2066 9.55925 18.3333 9.73692 18.3333 9.99984C18.3333 10.2628 18.2066 10.4404 17.9533 10.7957C16.8149 12.392 13.9076 15.8332 9.99996 15.8332C6.09228 15.8332 3.18504 12.392 2.04666 10.7957C1.7933 10.4404 1.66663 10.2628 1.66663 9.99984C1.66663 9.73692 1.7933 9.55925 2.04666 9.204C3.18504 7.6077 6.09228 4.1665 9.99996 4.1665C13.9076 4.1665 16.8149 7.6077 17.9533 9.204Z" stroke="#9E9E9E" stroke-width="1.25"/>
<path d="M12.5 10C12.5 8.61925 11.3807 7.5 10 7.5C8.61925 7.5 7.5 8.61925 7.5 10C7.5 11.3807 8.61925 12.5 10 12.5C11.3807 12.5 12.5 11.3807 12.5 10Z" stroke="#9E9E9E" stroke-width="1.25"/>
</svg>
